# xmcd
#
# Track frame offsets:
# 182
# 13462
# 24722
# 36045
# 44965
# 56030
# 68612
# 77857
# 90222
# 106825
# 118567
# 130645
# 142735
# 154660
# 163787
# 174690
# 188042
# 198812
# 211957
# 221062
#
# Disc length: 3180 seconds
#
#
# Revision: 0
# Processed by: cddbd v1.4PL0 Copyright (c) Steve Scherf et al.
# Submitted via: FreeRIP 2.51 
#
DISCID=140c6a14
DTITLE=Jimmy Martin - Jimmy Martin's 20 Greatest Hits
DYEAR=1988
DGENRE=Bluegrass
TTITLE0=Freeborn Man
TTITLE1=Truck Driving Man
TTITLE2=Pete, The Best Coon Dog in the State of Tennessee
TTITLE3=Beautiful Brown Eyes
TTITLE4=Uncle Pen
TTITLE5=Rolling in My Sweet Baby's Arms
TTITLE6=Blue Moon of Kentucky
TTITLE7=Don't Let Your Sweet Love Die
TTITLE8=Honey, You Don't Know My Mind
TTITLE9=Lover's Lane
TTITLE10=Widow Maker
TTITLE11=Sweet Little Maggie
TTITLE12=I Know You're Married (But I Love You Still)
TTITLE13=Foggy Mountain Breakdown
TTITLE14=Run Pet Run
TTITLE15=Bluegrass Singing Man
TTITLE16=One Woman Man
TTITLE17=Who's Calling You Sweetheart Tonight
TTITLE18=Taylor Made Sally Good
TTITLE19=Knoxville Girle
EXTD=
EXTT0=
EXTT1=
EXTT2=
EXTT3=
EXTT4=
EXTT5=
EXTT6=
EXTT7=
EXTT8=
EXTT9=
EXTT10=
EXTT11=
EXTT12=
EXTT13=
EXTT14=
EXTT15=
EXTT16=
EXTT17=
EXTT18=
EXTT19=
PLAYORDER=
